<?xml version="1.0" encoding="utf-8"?>

<!DOCTYPE svg PUBLIC "-//W3C//DTD SVG 1.1//EN" "http://www.w3.org/Graphics/SVG/1.1/DTD/svg11.dtd">
<svg version="1.1" id="Layer_1" xmlns="http://www.w3.org/2000/svg" xmlns:xlink="http://www.w3.org/1999/xlink" x="0px" y="0px"
	 viewBox="0 0 2010 634" style="enable-background:new 0 0 2010 634;" xml:space="preserve">
<g>
	<path d="M1975.532,474.786c6.368-17.616-6.46-26.27,1.486-31.698c1.284-0.877,1.883-19.476,1.871-21.662
		c-0.178-31.798,7.748-40.319,2.134-105.617c-8.113-94.353-5.603-85.194-21.859-158.202c-3.576-16.059,7.07-66.489,1.85-77.123
		c-4.896-9.972-20.771-9.687-30.145-9.398c-254.246,7.835-205.357,6.199-219.549-4.33c-20.398-15.133-41.731-11.285-49.933-11.341
		c-69.093-0.466-71.106,7.541-92.042-4.721c-12.249-7.174-18.558-6.094-35.377-6.473c-54.421-1.226-236.151,1.45-308.643,3.683
		c-14.081,0.434-13.63,4.383-23.149,8.273c-8.03,3.281-14.177,13.59-12.755,22.093c0.806,4.818-1.697,2.972-51.384,4.609
		c-1,0.033-974.297,13.943-1022.918,13.943c0.005,0.446,0.01,0.892,0.014,1.338c-18.666-1.522-37.182,0.826-55.753,1.762
		c-21.085,1.062-19.742-1.268-15.429,300.6c0.262,24.77-1.645,50.7,0.735,75.269c1.49,15.378,15.997,11.167,23.284,12.615
		c125.51,24.939,47.528,18.619,239.286,26.363c119.187,4.813,114.966,3.493,116.7,1.74c12.296-12.434,19.84,14.044,32.097,23.215
		c60.432,45.219,129.305-1.697,129.298-12.244c-0.005-7.229,3.266-6.144,18.098-5.817c1.3,0.029,2.544,0.069,3.736,1.004
		c26.828,21.05,72.112,18.979,100.519,2.179c3.427-2.027,586.264,15.723,587.265,15.681c38.006-1.597,41.218-4.315,42.685-1.324
		c33.208,67.67,114.084,53.201,140.151,10.532c8.335-13.643,24.659,2.845,27.769,4.382c19.466,9.622,44.31,9.605,64.773,0.589
		c5.577-2.457,10.864-7.091,17.246-6.866c17.828,0.63,217.658,4.937,217.658,4.937c19.911-2.202,35.868,1.134,42.522-2.441
		c6.218-3.341,13.269-3.497,19.784-5.55c5.216-1.643,10.74,1.116,15.733-1.835c2.094-1.238,4.389-2.354,6.738-2.909
		c90.755-21.443,90.631-18.478,91.695-28.806c0.881-8.556,1.362-17.153,2.092-25.726
		C1984.781,474.19,1972.831,482.258,1975.532,474.786z M150.609,235.064c-0.062,3.357-1.172,4.482-4.673,4.637
		c-82.483,3.655-75.848,6.329-76.074-2.255c-0.501-18.987-0.454-43.1-1.031-51.442c-0.519-7.489,0.95-5.709,41.652-5.709
		c0-0.015,0-0.03,0-0.044c11.992,0,23.986,0.095,35.976-0.053C154.385,180.1,151.617,180.838,150.609,235.064z M235.719,184.124
		c-0.885,15.419,0.105,30.884-1.134,46.307c-0.506,6.294,1.548,4.25-58.213,8.403c-10.885,0.756-8.493,2.579-8.493-29.598
		c-0.07,0-0.139,0-0.209,0c0-28.791-1.36-29.391,4.035-29.35C237.887,180.388,236.081,177.815,235.719,184.124z M350.503,239.497
		c-5.534-2.383-11.132-0.029-16.655,0.495c-2.523,0.239-1.88,3.503-2.777,5.329c-1.687,3.432,1.817,5.534-5.186,7.453
		c-2.505,0.686-2.447-1.795-2.971-3.094c-4.233-10.504-4.922-6.62-25.871-6.512c-3.376,0.017-5.07,1.299-5.863,4.628
		c-1.071,4.496-5.084,6.077-9.129,4.127c-1.34-0.646-1.323-0.542-1.212-11.427c0.585-57.486-5.834-60.637,6.503-60.909
		c10.479-0.231,20.966-0.061,31.45-0.061c0-0.074,0-0.147,0-0.221c35.18,0,36.183-1.619,36.176,4.443
		c-0.022,17.472,0.059,34.945,0.294,52.416C355.315,240.143,354.277,241.122,350.503,239.497z M562.702,255.043
		c-0.279,9.762-15.539-1.984-19.285,11.029c-3.778,13.121-3.773,12.637-4.962,12.496c-1.207-0.143-0.685-1.598-0.894-2.485
		c-2.556-10.824-2.501-17.358-11.626-16.532c-3.478,0.315-7.048-0.061-10.468,0.516c-14.18,2.392-11.018,15.309-20.109,46.17
		c-0.885,3.004-2.449,3.734-5.39,3.752c-23.791,0.146-23.91,13.209-37.708-56.522c-1.768-8.932-8.066-9.447-17.094-7.908
		c-12.554,2.14-9.988,0.147-12.234,34.488c-0.067,1.023-0.245,2.352-1.349,2.364c-1.357,0.014-0.765-1.449-0.896-2.26
		c-4.639-28.586-3.275-33.419-12.21-32.651c-11.435,0.983-18.335-1.834-20.417,7.186c-4.897,21.214-0.609,51.287-6.316,51.227
		c-2.493-0.026-1.874-1.8-1.996-3.158c-0.913-10.129-1.254-20.279-0.885-33.825c-2.218-99.444-4.735-89.173,6.133-89.226
		c0,0,172.925-0.824,172.928-0.824C567.891,178.84,565.183,168.075,562.702,255.043z M593.529,311.206
		c-2.731-1.423-6.762,1.51-8.688-1.604c-6.379-10.317-4.83-6.214-4.83-69.587h0.048c0-64.084-1.483-61.26,3.511-61.115
		c18.241,0.53,20.788-2.116,20.746,4.728C603.886,252.849,608.845,319.185,593.529,311.206z M704.145,324.377
		c-13.896,0.181-14.051,0.421-17.475-13.464c-4.318-17.509-8.95-34.948-11.936-52.768c-1.291-7.707-5.195-9.908-12.651-7.439
		c-14.451,4.786-12.022,6.032-13.951,11.321c-1.158,3.174-1.243,8.761-3.558,8.753c-6.398-0.021,0.264-17.946-10.57-15.411
		c-9.138,2.138-9.091-0.359-9.073-5.58c0.254-74.135-1.618-71.209,5.76-71.13c79.956,0.863,79.494-4.077,79.281,10.268
		c-0.314,21.155-0.104,42.318-0.104,63.477h0.209C710.077,325.461,712.492,324.269,704.145,324.377z M806.716,325.608
		c-3.078,1.033-4.709-0.173-5.97-2.729c-1.189-2.409,2.646-2.712-60.072-0.586c-7.192,0.244-5.083,3.767-5.083-71.668
		c-0.302,0-0.604,0-0.906,0c0-74.651-2.285-72.027,5.492-72.034c68.251-0.059,67.111-3.178,67.145,4.99
		c0.221,53.466,1.69,136.21,1.69,136.21C808.905,321.872,810.041,324.492,806.716,325.608z M976.955,247.755
		c-0.104,0-0.208,0-0.312,0c0,74.279,1.702,70.129-4.002,70.083c-20.324-0.163-40.676,0.524-60.966-0.334
		c-71.258-3.011-68.678,3.69-68.697-7.637c-0.238-140.561-2.766-132.062,5.253-132.034c138.844,0.469,128.818-1.982,128.786,3.957
		C976.901,203.778,976.955,225.766,976.955,247.755z M997.588,318.461c-2.107-0.198-1.55,6.078-1.55-73.879
		c-0.066,0-0.132,0-0.199,0c0-72.147-2.192-68.243,6.122-67.197c9.724,1.223,9.66,1.224,9.851,11.36
		c1.37,72.731,1.095,119.325,1.095,119.325C1013.981,316.998,1018.291,320.406,997.588,318.461z M1162.978,319.847
		c-2.423,2.707-7.587,0.468-11.488,1.019c-4.962,0.701-33.76,2.188-42.779-1.26c-5.785-2.211-12.551-1.524-18.644-0.159
		c-10.334,2.315,2.258,0.841-54.967,0.318c-4.048-0.037-5.007-1.531-5.014-5.326c-0.273-147.084-3.551-136.735,3.265-136.704
		c135.996,0.627,129.664-3.04,129.555,5.208c-0.276,20.814-0.119,41.633-0.119,62.451h0.301c0,20.978-0.061,41.957,0.054,62.934
		C1163.164,312.261,1165.33,317.22,1162.978,319.847z M1199.565,245.806l-0.048,0.001c0,84.994,2.606,76.084-7.203,75.873
		c-14.101-0.302-11.323,1.881-11.12-11.949c2.263-154.146-9.728-130.864,13.98-132.88
		C1201.25,176.333,1199.565,173.556,1199.565,245.806z M1369.634,289.964c-11.64-0.065-23.283,0.615-34.927,0.735
		c-10.618,0.11-4.642,10.191-11.907,9.032c-4.957-0.791-7.328,1.681-8.396,6.264c-1.047,4.489-3.064,8.84-3.484,13.361
		c-0.383,4.126-2.321,4.481-5.504,4.402c-91.349-2.271-87.224,0.273-87.175-7.076c1.001-150.033-1.45-139.342,4.785-139.294
		c12.106,0.094,24.213,0.053,36.32,0.057c12.119,0.004,24.238,0.001,36.357,0.001c0-0.099-0.001-0.197-0.001-0.296
		c82.18,0,78.383-1.823,78.442,4.499c0.318,34.13,0.72,68.26,1.284,102.387C1375.502,288.485,1374.292,289.99,1369.634,289.964z
		 M1517.836,265.894c-0.005,3.677-1.101,5.61-4.561,5.802c-10.826,0.6-6.098,12.982-11.648,34.543
		c-1.925,7.479-1.97,7.646-3.375,7.413c-5.332-0.884-73.387-0.671-74.388-0.664c-3.951,0.028-4.25-0.42-7.998-15.616
		c-1.643-6.661-6.159-6.426-11.672-6.738c-13.098-0.74-9.863,10.075-10.338-101.438c-0.077-18.27-11.452-10.688,118.449-12.374
		C1521.675,176.7,1517.968,172.381,1517.836,265.894z M1637.49,331.898c-11.094-1.524-22.246-0.524-33.37-0.561
		c-30.854-0.103-31.723,2.712-32.745-3.368c-2.742-16.313-5.525-32.622-8.581-48.878c-2.214-11.776-10.6-14.465-17.397-10.002
		c-7.141,4.689-3.816,3.43-3.502-68.3c0.097-22.274-0.16-22.377,3.14-22.975c9.67-1.754,58.009-0.427,86.404-0.989
		c4.276-0.085,7.621,1.771,11.132,3.505c3.257,1.609,0.683-6.179,0.019,120.607C1642.437,330.025,1644.981,332.927,1637.49,331.898z
		 M1772.912,263.625c0.531,16.485-1.233,40.612-0.947,64.759c0.048,4.04,2.539,3.656-49.032,3.51
		c-6.419-0.018-7.905-9.896-19.258-45.099c-5.62-17.427-3.138-30.498-3.93-104.833c-0.042-3.972,1.033-5.145,5.029-5.105
		c28.977,0.284,57.368-0.097,60.431,0.224C1778.342,178.458,1772.121,172.141,1772.912,263.625z M1817.861,328.902
		c-15.145,3.128-20.567,5.557-21.083-1.027c-2.185-27.851-2-146.853-2.003-147.855c-0.011-3.236-0.504-5.774,4.602-4.34
		c8.836,2.481,16.25-3.338,17.454,4.043c0.172,1.052,11.196,59.366,14.256,111.239
		C1833.537,332.504,1837.624,324.82,1817.861,328.902z M1941.279,369.064c-2.594,0.052-7.982,0.981-9.617-1.635
		c-1.303-2.088,1.032-7.74,1.474-9.945c2.374-11.854-1.492-22.197-8.01-31.727c-2.095-3.063-5.266-1.277-7.659,0.005
		c-13.352,7.156-26.108,9.005-27.108,9.463c-2.071,0.948-3.799-2.23-0.583-3.011c11.779-2.859,15.771-2.119,16.102-6.933
		c0.222-3.222-1.595-4.262-4.232-5.706c-8.016-4.389-16.437-3.032-24.685-2.225c-4.986,0.488-9.95-0.138-14.886,0.592
		c-1.421,0.21-2.099-0.717-2.234-2.065c-15.042-150.479-22.424-142.281-16.199-142.27c52.708,0.093,52.744-10.401,52.64,7.798
		c-0.043,7.497,1.641,14.913,0.796,22.146c1.861,30.44-0.399,41.678,14.221,41.582c5.22-0.034,10.636,1.229,15.65-1.658
		c2.074-1.195,2.576,0.418,2.544,2.146c-0.099,5.265,1.992,4.978,31.147,3.923c2.887-0.104,4.035,0.491,4.412,3.578
		c1.467,12.005,3.719,23.906,4.768,35.974c2.713,31.241,0.746,47.098,3.736,71.159
		C1974.814,372.53,1959.153,368.704,1941.279,369.064z"/>
</g>
</svg>
